<svg xmlns="http://www.w3.org/2000/svg" viewBox="0 0 158.42 158.42"><defs><style>.cls-1{fill:#8e3b17;}.cls-2{fill:#231f20;}</style></defs><g id="Warstwa_2" data-name="Warstwa 2"><g id="Layer_1" data-name="Layer 1"><rect class="cls-1" x="99.01" y="79.21" width="19.8" height="19.8"/><rect class="cls-1" x="118.81" y="118.81" width="19.81" height="19.81"/><rect class="cls-1" x="118.81" y="99.01" width="19.81" height="19.8"/><rect class="cls-1" x="118.81" y="79.21" width="19.81" height="19.8"/><rect class="cls-1" x="99.01" y="99.01" width="19.8" height="19.8"/><rect class="cls-1" x="99.01" y="118.81" width="19.8" height="19.81"/><rect class="cls-1" x="79.21" y="118.81" width="19.8" height="19.81"/><rect class="cls-1" x="39.61" y="118.81" width="19.8" height="19.81"/><rect class="cls-1" x="19.8" y="99.01" width="19.81" height="19.8"/><rect class="cls-1" x="19.8" y="118.81" width="19.81" height="19.81"/><rect class="cls-1" x="59.41" y="39.61" width="19.8" height="19.8"/><rect class="cls-1" x="59.41" y="79.21" width="19.8" height="19.8"/><rect class="cls-1" x="59.41" y="59.41" width="19.8" height="19.8"/><rect class="cls-1" x="59.41" y="19.8" width="19.8" height="19.81"/><rect class="cls-1" x="39.61" y="19.8" width="19.8" height="19.81"/><rect class="cls-1" x="39.61" y="39.61" width="19.8" height="19.8"/><rect class="cls-1" x="39.61" y="59.41" width="19.8" height="19.8"/><rect class="cls-1" x="39.61" y="79.21" width="19.8" height="19.8"/><rect class="cls-1" x="19.8" y="19.8" width="19.81" height="19.81"/><rect class="cls-1" x="19.8" y="39.61" width="19.81" height="19.8"/><rect class="cls-1" x="19.8" y="59.41" width="19.81" height="19.8"/><rect class="cls-1" x="118.81" y="19.8" width="19.81" height="19.81"/><rect class="cls-1" x="118.81" y="39.61" width="19.81" height="19.8"/><rect class="cls-1" x="99.01" y="19.8" width="19.8" height="19.81"/><rect class="cls-1" x="118.81" y="59.41" width="19.81" height="19.8"/><rect class="cls-1" x="99.01" y="59.41" width="19.8" height="19.8"/><rect class="cls-1" x="99.01" y="39.61" width="19.8" height="19.8"/><rect class="cls-1" x="19.8" y="79.21" width="19.81" height="19.8"/><rect class="cls-2" x="138.62" y="138.62" width="19.8" height="19.8"/><rect class="cls-2" x="138.62" y="118.81" width="19.8" height="19.81"/><rect class="cls-2" x="138.62" y="99.01" width="19.8" height="19.8"/><rect class="cls-2" x="138.62" y="79.21" width="19.8" height="19.8"/><rect class="cls-2" x="138.62" y="59.41" width="19.8" height="19.8"/><rect class="cls-2" x="138.62" y="39.61" width="19.8" height="19.8"/><rect class="cls-2" x="138.62" y="19.8" width="19.8" height="19.81"/><rect class="cls-2" x="138.62" width="19.8" height="19.8"/><rect class="cls-2" x="118.81" y="138.62" width="19.81" height="19.8"/><rect class="cls-2" x="118.81" width="19.81" height="19.8"/><rect class="cls-2" x="99.01" y="138.62" width="19.8" height="19.8"/><rect class="cls-2" x="99.01" width="19.8" height="19.8"/><rect class="cls-2" x="79.21" y="138.62" width="19.8" height="19.8"/><rect class="cls-1" x="79.21" y="99.01" width="19.8" height="19.8"/><rect class="cls-1" x="79.21" y="79.21" width="19.8" height="19.8"/><rect class="cls-1" x="79.21" y="59.41" width="19.8" height="19.8"/><rect class="cls-1" x="79.21" y="39.61" width="19.8" height="19.8"/><rect class="cls-1" x="79.21" y="19.8" width="19.8" height="19.81"/><rect class="cls-2" x="79.21" width="19.8" height="19.8"/><rect class="cls-2" x="59.41" y="138.62" width="19.8" height="19.8"/><rect class="cls-1" x="59.41" y="118.81" width="19.8" height="19.81"/><rect class="cls-1" x="59.41" y="99.01" width="19.8" height="19.8"/><rect class="cls-2" x="69.31" width="19.8" height="62.62"/><rect class="cls-2" x="39.61" y="138.62" width="19.8" height="19.8"/><rect class="cls-1" x="39.61" y="99.01" width="19.8" height="19.8"/><rect class="cls-2" x="19.8" y="138.62" width="19.81" height="19.8"/><rect class="cls-2" x="17.24" width="57.48" height="19.8"/><rect class="cls-2" y="138.62" width="19.8" height="19.8"/><rect class="cls-2" y="59.41" width="19.8" height="79.21"/><rect class="cls-2" y="99.01" width="19.8" height="19.8"/><line class="cls-2" y1="101.97" x2="19.8" y2="101.97"/><rect class="cls-2" y="45.95" width="158.42" height="19.8"/><rect class="cls-2" y="39.61" width="19.8" height="19.8"/><rect class="cls-2" y="19.8" width="19.8" height="19.81"/><rect class="cls-2" width="19.8" height="19.8"/><rect class="cls-2" x="69.31" y="92.07" width="19.8" height="62.62"/><rect class="cls-2" y="92.07" width="158.42" height="19.8"/></g></g></svg>