<svg xmlns="http://www.w3.org/2000/svg" viewBox="0 0 277.23 237.63"><defs><style>.cls-1{fill:#231f20;}.cls-2{fill:#fdfffc;}.cls-3{fill:#5dd4eb;}</style></defs><g id="Warstwa_2" data-name="Warstwa 2"><g id="Layer_1" data-name="Layer 1"><rect class="cls-1" x="257.42" y="178.22" width="19.81" height="19.8"/><rect class="cls-1" x="257.42" y="158.42" width="19.81" height="19.8"/><rect class="cls-1" x="257.42" y="118.82" width="19.81" height="19.8"/><rect class="cls-1" x="237.62" y="178.22" width="19.8" height="19.8"/><rect class="cls-2" x="237.62" y="158.42" width="19.8" height="19.8"/><rect class="cls-1" x="237.62" y="138.62" width="19.8" height="19.8"/><rect class="cls-2" x="237.62" y="118.82" width="19.8" height="19.8"/><rect class="cls-1" x="237.62" y="99.01" width="19.8" height="19.81"/><rect class="cls-1" x="217.82" y="198.02" width="19.8" height="19.81"/><rect class="cls-2" x="217.82" y="178.22" width="19.8" height="19.8"/><rect class="cls-2" x="217.82" y="158.42" width="19.8" height="19.8"/><rect class="cls-2" x="217.82" y="138.62" width="19.8" height="19.8"/><rect class="cls-2" x="217.82" y="118.82" width="19.8" height="19.8"/><rect class="cls-2" x="217.82" y="99.01" width="19.8" height="19.81"/><rect class="cls-1" x="217.82" y="79.21" width="19.8" height="19.8"/><rect class="cls-1" x="198.02" y="198.02" width="19.8" height="19.81"/><rect class="cls-2" x="198.02" y="178.22" width="19.8" height="19.8"/><rect class="cls-2" x="198.02" y="158.42" width="19.8" height="19.8"/><rect class="cls-2" x="198.02" y="138.62" width="19.8" height="19.8"/><rect class="cls-2" x="198.02" y="118.82" width="19.8" height="19.8"/><rect class="cls-1" x="198.02" y="99.01" width="19.8" height="19.81"/><rect class="cls-1" x="178.22" y="217.83" width="19.8" height="19.8"/><rect class="cls-1" x="178.22" y="198.02" width="19.8" height="19.81"/><rect class="cls-2" x="178.22" y="178.22" width="19.8" height="19.8"/><rect class="cls-3" x="178.22" y="158.42" width="19.8" height="19.8"/><rect class="cls-2" x="178.22" y="138.62" width="19.8" height="19.8"/><rect class="cls-2" x="178.22" y="118.82" width="19.8" height="19.8"/><rect class="cls-2" x="178.22" y="99.01" width="19.8" height="19.81"/><rect class="cls-1" x="178.22" y="79.21" width="19.8" height="19.8"/><rect class="cls-1" x="178.22" y="59.41" width="19.8" height="19.8"/><rect class="cls-1" x="158.41" y="217.83" width="19.81" height="19.8"/><rect class="cls-2" x="158.41" y="198.02" width="19.81" height="19.81"/><rect class="cls-3" x="158.41" y="178.22" width="19.81" height="19.8"/><rect class="cls-2" x="158.41" y="158.42" width="19.81" height="19.8"/><rect class="cls-2" x="158.41" y="138.62" width="19.81" height="19.8"/><rect class="cls-2" x="158.41" y="118.82" width="19.81" height="19.8"/><rect class="cls-2" x="158.41" y="99.01" width="19.81" height="19.81"/><rect class="cls-2" x="158.41" y="79.21" width="19.81" height="19.8"/><rect class="cls-2" x="158.41" y="59.41" width="19.81" height="19.8"/><rect class="cls-1" x="158.41" y="39.61" width="19.81" height="19.8"/><rect class="cls-1" x="138.61" y="217.83" width="19.8" height="19.8"/><rect class="cls-1" x="138.61" y="198.02" width="19.8" height="19.81"/><rect class="cls-2" x="138.61" y="178.22" width="19.8" height="19.8"/><rect class="cls-3" x="138.61" y="158.42" width="19.8" height="19.8"/><rect class="cls-2" x="138.61" y="138.62" width="19.8" height="19.8"/><rect class="cls-2" x="138.61" y="118.82" width="19.8" height="19.8"/><rect class="cls-2" x="138.61" y="99.01" width="19.8" height="19.81"/><rect class="cls-2" x="138.61" y="79.21" width="19.8" height="19.8"/><rect class="cls-3" x="138.61" y="59.41" width="19.8" height="19.8"/><rect class="cls-2" x="138.61" y="39.61" width="19.8" height="19.8"/><rect class="cls-1" x="138.61" y="19.81" width="19.8" height="19.8"/><rect class="cls-1" x="138.61" width="19.8" height="19.81"/><rect class="cls-1" x="118.81" y="198.02" width="19.8" height="19.81"/><rect class="cls-2" x="118.81" y="178.22" width="19.8" height="19.8"/><rect class="cls-3" x="118.81" y="158.42" width="19.8" height="19.8"/><rect class="cls-2" x="118.81" y="138.62" width="19.8" height="19.8"/><rect class="cls-2" x="118.81" y="118.82" width="19.8" height="19.8"/><rect class="cls-2" x="118.81" y="99.01" width="19.8" height="19.81"/><rect class="cls-2" x="118.81" y="79.21" width="19.8" height="19.8"/><rect class="cls-2" x="118.81" y="59.41" width="19.8" height="19.8"/><rect class="cls-2" x="118.81" y="39.61" width="19.8" height="19.8"/><rect class="cls-2" x="118.81" y="19.81" width="19.8" height="19.8"/><rect class="cls-1" x="118.81" width="19.8" height="19.81"/><rect class="cls-1" x="99.01" y="217.83" width="19.8" height="19.8"/><rect class="cls-2" x="99.01" y="198.02" width="19.8" height="19.81"/><rect class="cls-3" x="99.01" y="178.22" width="19.8" height="19.8"/><rect class="cls-2" x="99.01" y="158.42" width="19.8" height="19.8"/><rect class="cls-2" x="99.01" y="138.62" width="19.8" height="19.8"/><rect class="cls-2" x="99.01" y="118.82" width="19.8" height="19.8"/><rect class="cls-2" x="99.01" y="99.01" width="19.8" height="19.81"/><rect class="cls-3" x="99.01" y="79.21" width="19.8" height="19.8"/><rect class="cls-2" x="99.01" y="59.41" width="19.8" height="19.8"/><rect class="cls-2" x="99.01" y="39.61" width="19.8" height="19.8"/><rect class="cls-1" x="99.01" y="19.81" width="19.8" height="19.8"/><rect class="cls-1" x="79.21" y="198.02" width="19.8" height="19.81"/><rect class="cls-2" x="79.21" y="178.22" width="19.8" height="19.8"/><rect class="cls-3" x="79.21" y="158.42" width="19.8" height="19.8"/><rect class="cls-2" x="79.21" y="138.62" width="19.8" height="19.8"/><rect class="cls-2" x="79.21" y="118.82" width="19.8" height="19.8"/><rect class="cls-2" x="79.21" y="99.01" width="19.8" height="19.81"/><rect class="cls-2" x="79.21" y="79.21" width="19.8" height="19.8"/><rect class="cls-1" x="79.21" y="59.41" width="19.8" height="19.8"/><rect class="cls-1" x="79.21" y="39.61" width="19.8" height="19.8"/><rect class="cls-1" x="79.21" y="19.81" width="19.8" height="19.8"/><rect class="cls-1" x="59.4" y="198.02" width="19.81" height="19.81"/><rect class="cls-2" x="59.4" y="178.22" width="19.81" height="19.8"/><rect class="cls-3" x="59.4" y="158.42" width="19.81" height="19.8"/><rect class="cls-2" x="59.4" y="138.62" width="19.81" height="19.8"/><rect class="cls-2" x="59.4" y="118.82" width="19.81" height="19.8"/><rect class="cls-2" x="59.4" y="99.01" width="19.81" height="19.81"/><rect class="cls-1" x="59.4" y="79.21" width="19.81" height="19.8"/><rect class="cls-1" x="59.4" y="59.41" width="19.81" height="19.8"/><rect class="cls-1" x="39.6" y="178.22" width="19.8" height="19.8"/><rect class="cls-2" x="39.6" y="158.42" width="19.8" height="19.8"/><rect class="cls-3" x="39.6" y="138.62" width="19.8" height="19.8"/><rect class="cls-2" x="39.6" y="118.82" width="19.8" height="19.8"/><rect class="cls-2" x="39.6" y="99.01" width="19.8" height="19.81"/><rect class="cls-1" x="39.6" y="79.21" width="19.8" height="19.8"/><rect class="cls-1" x="19.8" y="178.22" width="19.8" height="19.8"/><rect class="cls-1" x="19.8" y="158.42" width="19.8" height="19.8"/><rect class="cls-2" x="19.8" y="138.62" width="19.8" height="19.8"/><rect class="cls-2" x="19.8" y="118.82" width="19.8" height="19.8"/><rect class="cls-1" x="19.8" y="99.01" width="19.8" height="19.81"/><rect class="cls-1" y="138.62" width="19.8" height="19.8"/><rect class="cls-1" y="118.82" width="19.8" height="19.8"/></g></g></svg>