<svg xmlns="http://www.w3.org/2000/svg" viewBox="0 0 158.42 158.42"><defs><style>.cls-1{fill:#f9c178;}.cls-2{fill:#cd672d;}.cls-3{fill:#231f20;}.cls-4{fill:#bf7650;}</style></defs><g id="Warstwa_2" data-name="Warstwa 2"><g id="Layer_1" data-name="Layer 1"><rect class="cls-1" x="79.21" y="59.41" width="19.8" height="19.8"/><rect class="cls-1" x="19.81" y="99.01" width="19.8" height="19.8"/><rect class="cls-1" x="19.81" y="118.81" width="19.8" height="19.81"/><rect class="cls-1" x="39.61" y="99.01" width="19.8" height="19.8"/><rect class="cls-1" x="39.61" y="118.81" width="19.8" height="19.81"/><rect class="cls-1" x="59.41" y="59.41" width="19.8" height="19.8"/><rect class="cls-1" x="59.41" y="118.81" width="19.8" height="19.81"/><rect class="cls-1" x="59.41" y="99.01" width="19.8" height="19.8"/><rect class="cls-1" x="59.41" y="79.21" width="19.8" height="19.8"/><rect class="cls-1" x="39.61" y="79.21" width="19.8" height="19.8"/><rect class="cls-1" x="19.81" y="79.21" width="19.8" height="19.8"/><rect class="cls-1" x="19.81" y="59.41" width="19.8" height="19.8"/><rect class="cls-1" x="19.81" y="39.61" width="19.8" height="19.8"/><rect class="cls-1" x="19.81" y="19.8" width="19.8" height="19.81"/><rect class="cls-1" x="39.61" y="19.8" width="19.8" height="19.81"/><rect class="cls-1" x="59.41" y="19.8" width="19.8" height="19.81"/><rect class="cls-1" x="79.21" y="19.8" width="19.8" height="19.81"/><rect class="cls-1" x="99.01" y="19.8" width="19.81" height="19.81"/><rect class="cls-1" x="99.01" y="79.21" width="19.81" height="19.8"/><rect class="cls-1" x="99.01" y="99.01" width="19.81" height="19.8"/><rect class="cls-1" x="99.01" y="118.81" width="19.81" height="19.81"/><rect class="cls-1" x="118.82" y="19.8" width="19.8" height="19.81"/><rect class="cls-1" x="118.82" y="39.61" width="19.8" height="19.8"/><rect class="cls-1" x="118.82" y="59.41" width="19.8" height="19.8"/><rect class="cls-1" x="118.82" y="118.81" width="19.8" height="19.81"/><rect class="cls-1" x="118.82" y="99.01" width="19.8" height="19.8"/><rect class="cls-1" x="118.82" y="79.21" width="19.8" height="19.8"/><rect class="cls-2" x="39.61" y="59.41" width="19.8" height="19.8"/><rect class="cls-2" x="79.21" y="99.01" width="19.8" height="19.8"/><rect class="cls-3" x="138.62" y="138.62" width="19.8" height="19.8"/><rect class="cls-3" x="138.62" y="118.81" width="19.8" height="19.81"/><rect class="cls-3" x="138.62" y="99.01" width="19.8" height="19.8"/><rect class="cls-3" x="138.62" y="79.21" width="19.8" height="19.8"/><rect class="cls-3" x="138.62" y="59.41" width="19.8" height="19.8"/><rect class="cls-3" x="138.62" y="39.61" width="19.8" height="19.8"/><rect class="cls-3" x="138.62" y="19.8" width="19.8" height="19.81"/><rect class="cls-3" x="118.82" y="138.62" width="19.8" height="19.8"/><rect class="cls-4" x="118.82" width="19.8" height="19.8"/><rect class="cls-3" x="99.01" y="138.62" width="19.81" height="19.8"/><rect class="cls-2" x="99.01" y="59.41" width="19.81" height="19.8"/><rect class="cls-2" x="99.01" y="39.61" width="19.81" height="19.8"/><rect class="cls-4" x="99.01" width="19.81" height="19.8"/><rect class="cls-3" x="79.21" y="138.62" width="19.8" height="19.8"/><rect class="cls-1" x="79.21" y="118.81" width="19.8" height="19.81"/><rect class="cls-1" x="79.21" y="79.21" width="19.8" height="19.8"/><rect class="cls-2" x="79.21" y="39.61" width="19.8" height="19.8"/><rect class="cls-4" x="79.21" width="19.8" height="19.8"/><rect class="cls-3" x="59.41" y="138.62" width="19.8" height="19.8"/><rect class="cls-2" x="59.41" y="39.61" width="19.8" height="19.8"/><rect class="cls-4" x="59.41" width="19.8" height="19.8"/><rect class="cls-3" x="39.61" y="138.62" width="19.8" height="19.8"/><rect class="cls-2" x="39.61" y="39.61" width="19.8" height="19.8"/><rect class="cls-4" x="39.61" width="19.8" height="19.8"/><rect class="cls-3" x="19.81" y="138.62" width="19.8" height="19.8"/><rect class="cls-4" x="19.81" width="19.8" height="19.8"/><rect class="cls-4" y="118.81" width="19.81" height="19.81"/><rect class="cls-4" y="99.01" width="19.81" height="19.8"/><rect class="cls-4" y="79.21" width="19.81" height="19.8"/><rect class="cls-4" y="59.41" width="19.81" height="19.8"/><rect class="cls-4" y="39.61" width="19.81" height="19.8"/><rect class="cls-4" y="19.8" width="19.81" height="19.81"/><rect class="cls-4" width="19.81" height="19.8"/></g></g></svg>