<svg xmlns="http://www.w3.org/2000/svg" viewBox="0 0 1029.7 178.22"><defs><style>.cls-1{fill:#231f20;}.cls-2{fill:#3bb900;}.cls-3{fill:#c5e030;}</style></defs><g id="Warstwa_2" data-name="Warstwa 2"><g id="Layer_1" data-name="Layer 1"><rect class="cls-1" x="1009.9" y="158.42" width="19.8" height="19.8"/><rect class="cls-2" x="990.1" y="158.42" width="19.8" height="19.8"/><rect class="cls-1" x="990.1" y="138.61" width="19.8" height="19.81"/><rect class="cls-2" x="970.29" y="158.42" width="19.81" height="19.8"/><rect class="cls-2" x="970.29" y="138.61" width="19.81" height="19.81"/><rect class="cls-1" x="970.29" y="118.81" width="19.81" height="19.8"/><rect class="cls-2" x="950.49" y="158.42" width="19.8" height="19.8"/><rect class="cls-2" x="950.49" y="138.61" width="19.8" height="19.81"/><rect class="cls-2" x="950.49" y="118.81" width="19.8" height="19.8"/><rect class="cls-1" x="950.49" y="99.01" width="19.8" height="19.8"/><rect class="cls-2" x="930.69" y="158.42" width="19.8" height="19.8"/><rect class="cls-2" x="930.69" y="138.61" width="19.8" height="19.81"/><rect class="cls-2" x="930.69" y="118.81" width="19.8" height="19.8"/><rect class="cls-2" x="930.69" y="99.01" width="19.8" height="19.8"/><rect class="cls-1" x="930.69" y="79.21" width="19.8" height="19.8"/><rect class="cls-2" x="910.89" y="158.42" width="19.8" height="19.8"/><rect class="cls-2" x="910.89" y="138.61" width="19.8" height="19.81"/><rect class="cls-2" x="910.89" y="118.81" width="19.8" height="19.8"/><rect class="cls-2" x="910.89" y="99.01" width="19.8" height="19.8"/><rect class="cls-2" x="910.89" y="79.21" width="19.8" height="19.8"/><rect class="cls-1" x="910.89" y="59.41" width="19.8" height="19.8"/><rect class="cls-2" x="891.09" y="158.42" width="19.8" height="19.8"/><rect class="cls-2" x="891.09" y="138.61" width="19.8" height="19.81"/><rect class="cls-2" x="891.09" y="118.81" width="19.8" height="19.8"/><rect class="cls-2" x="891.09" y="99.01" width="19.8" height="19.8"/><rect class="cls-2" x="891.09" y="79.21" width="19.8" height="19.8"/><rect class="cls-2" x="891.09" y="59.41" width="19.8" height="19.8"/><rect class="cls-1" x="891.09" y="39.6" width="19.8" height="19.81"/><rect class="cls-2" x="871.28" y="158.42" width="19.81" height="19.8"/><rect class="cls-2" x="871.28" y="138.61" width="19.81" height="19.81"/><rect class="cls-2" x="871.28" y="118.81" width="19.81" height="19.8"/><rect class="cls-2" x="871.28" y="99.01" width="19.81" height="19.8"/><rect class="cls-1" x="871.28" y="79.21" width="19.81" height="19.8"/><rect class="cls-1" x="871.28" y="59.41" width="19.81" height="19.8"/><rect class="cls-2" x="871.28" y="39.6" width="19.81" height="19.81"/><rect class="cls-1" x="871.28" y="19.8" width="19.81" height="19.8"/><rect class="cls-2" x="851.48" y="158.42" width="19.8" height="19.8"/><rect class="cls-2" x="851.48" y="138.61" width="19.8" height="19.81"/><rect class="cls-2" x="851.48" y="118.81" width="19.8" height="19.8"/><rect class="cls-1" x="851.48" y="99.01" width="19.8" height="19.8"/><rect class="cls-1" x="851.48" y="79.21" width="19.8" height="19.8"/><rect class="cls-2" x="851.48" y="59.41" width="19.8" height="19.8"/><rect class="cls-2" x="851.48" y="39.6" width="19.8" height="19.81"/><rect class="cls-1" x="851.48" y="19.8" width="19.8" height="19.8"/><rect class="cls-1" x="851.48" width="19.8" height="19.8"/><rect class="cls-2" x="831.68" y="158.42" width="19.8" height="19.8"/><rect class="cls-2" x="831.68" y="138.61" width="19.8" height="19.81"/><rect class="cls-2" x="831.68" y="118.81" width="19.8" height="19.8"/><rect class="cls-2" x="831.68" y="99.01" width="19.8" height="19.8"/><rect class="cls-2" x="831.68" y="79.21" width="19.8" height="19.8"/><rect class="cls-2" x="831.68" y="59.41" width="19.8" height="19.8"/><rect class="cls-2" x="831.68" y="39.6" width="19.8" height="19.81"/><rect class="cls-2" x="831.68" y="19.8" width="19.8" height="19.8"/><rect class="cls-1" x="831.68" width="19.8" height="19.8"/><rect class="cls-2" x="811.88" y="158.42" width="19.8" height="19.8"/><rect class="cls-2" x="811.88" y="138.61" width="19.8" height="19.81"/><rect class="cls-1" x="811.88" y="118.81" width="19.8" height="19.8"/><rect class="cls-1" x="811.88" y="99.01" width="19.8" height="19.8"/><rect class="cls-2" x="811.88" y="79.21" width="19.8" height="19.8"/><rect class="cls-2" x="811.88" y="59.41" width="19.8" height="19.8"/><rect class="cls-2" x="811.88" y="39.6" width="19.8" height="19.81"/><rect class="cls-2" x="811.88" y="19.8" width="19.8" height="19.8"/><rect class="cls-1" x="811.88" width="19.8" height="19.8"/><rect class="cls-2" x="792.08" y="158.42" width="19.8" height="19.8"/><rect class="cls-2" x="792.08" y="138.61" width="19.8" height="19.81"/><rect class="cls-2" x="792.08" y="118.81" width="19.8" height="19.8"/><rect class="cls-2" x="792.08" y="99.01" width="19.8" height="19.8"/><rect class="cls-2" x="792.08" y="79.21" width="19.8" height="19.8"/><rect class="cls-2" x="792.08" y="59.41" width="19.8" height="19.8"/><rect class="cls-2" x="792.08" y="39.6" width="19.8" height="19.81"/><rect class="cls-2" x="792.08" y="19.8" width="19.8" height="19.8"/><rect class="cls-1" x="792.08" width="19.8" height="19.8"/><rect class="cls-2" x="772.27" y="158.42" width="19.81" height="19.8"/><rect class="cls-2" x="772.27" y="138.61" width="19.81" height="19.81"/><rect class="cls-2" x="772.27" y="118.81" width="19.81" height="19.8"/><rect class="cls-2" x="772.27" y="99.01" width="19.81" height="19.8"/><rect class="cls-2" x="772.27" y="79.21" width="19.81" height="19.8"/><rect class="cls-2" x="772.27" y="59.41" width="19.81" height="19.8"/><rect class="cls-2" x="772.27" y="39.6" width="19.81" height="19.81"/><rect class="cls-1" x="772.27" y="19.8" width="19.81" height="19.8"/><rect class="cls-1" x="772.27" width="19.81" height="19.8"/><rect class="cls-2" x="752.47" y="158.42" width="19.8" height="19.8"/><rect class="cls-2" x="752.47" y="138.61" width="19.8" height="19.81"/><rect class="cls-2" x="752.47" y="118.81" width="19.8" height="19.8"/><rect class="cls-2" x="752.47" y="99.01" width="19.8" height="19.8"/><rect class="cls-2" x="752.47" y="79.21" width="19.8" height="19.8"/><rect class="cls-2" x="752.47" y="59.41" width="19.8" height="19.8"/><rect class="cls-2" x="752.47" y="39.6" width="19.8" height="19.81"/><rect class="cls-1" x="752.47" y="19.8" width="19.8" height="19.8"/><rect class="cls-2" x="732.67" y="158.42" width="19.8" height="19.8"/><rect class="cls-2" x="732.67" y="138.61" width="19.8" height="19.81"/><rect class="cls-2" x="732.67" y="118.81" width="19.8" height="19.8"/><rect class="cls-2" x="732.67" y="99.01" width="19.8" height="19.8"/><rect class="cls-2" x="732.67" y="79.21" width="19.8" height="19.8"/><rect class="cls-2" x="732.67" y="59.41" width="19.8" height="19.8"/><rect class="cls-1" x="732.67" y="39.6" width="19.8" height="19.81"/><rect class="cls-2" x="712.87" y="158.42" width="19.8" height="19.8"/><rect class="cls-2" x="712.87" y="138.61" width="19.8" height="19.81"/><rect class="cls-2" x="712.87" y="118.81" width="19.8" height="19.8"/><rect class="cls-2" x="712.87" y="99.01" width="19.8" height="19.8"/><rect class="cls-2" x="712.87" y="79.21" width="19.8" height="19.8"/><rect class="cls-1" x="712.87" y="59.41" width="19.8" height="19.8"/><rect class="cls-2" x="693.07" y="158.42" width="19.8" height="19.8"/><rect class="cls-2" x="693.07" y="138.61" width="19.8" height="19.81"/><rect class="cls-2" x="693.07" y="118.81" width="19.8" height="19.8"/><rect class="cls-2" x="693.07" y="99.01" width="19.8" height="19.8"/><rect class="cls-1" x="693.07" y="79.21" width="19.8" height="19.8"/><rect class="cls-2" x="673.26" y="158.42" width="19.81" height="19.8"/><rect class="cls-2" x="673.26" y="138.61" width="19.81" height="19.81"/><rect class="cls-2" x="673.26" y="118.81" width="19.81" height="19.8"/><rect class="cls-1" x="673.26" y="99.01" width="19.81" height="19.8"/><rect class="cls-2" x="653.46" y="158.42" width="19.8" height="19.8"/><rect class="cls-2" x="653.46" y="138.61" width="19.8" height="19.81"/><rect class="cls-1" x="653.46" y="118.81" width="19.8" height="19.8"/><rect class="cls-2" x="633.66" y="158.42" width="19.8" height="19.8"/><rect class="cls-1" x="633.66" y="138.61" width="19.8" height="19.81"/><rect class="cls-1" x="613.86" y="158.42" width="19.8" height="19.8"/><rect class="cls-1" x="534.65" y="138.61" width="19.8" height="19.81"/><rect class="cls-1" x="534.65" y="118.81" width="19.8" height="19.8"/><rect class="cls-1" x="514.85" y="158.42" width="19.8" height="19.8"/><rect class="cls-3" x="514.85" y="138.61" width="19.8" height="19.81"/><rect class="cls-1" x="514.85" y="118.81" width="19.8" height="19.8"/><rect class="cls-1" x="514.85" y="99.01" width="19.8" height="19.8"/><rect class="cls-3" x="495.05" y="158.42" width="19.8" height="19.8"/><rect class="cls-3" x="495.05" y="138.61" width="19.8" height="19.81"/><rect class="cls-3" x="495.05" y="118.81" width="19.8" height="19.8"/><rect class="cls-1" x="495.05" y="99.01" width="19.8" height="19.8"/><rect class="cls-3" x="475.24" y="158.42" width="19.81" height="19.8"/><rect class="cls-3" x="475.24" y="138.61" width="19.81" height="19.81"/><rect class="cls-1" x="475.24" y="118.81" width="19.81" height="19.8"/><rect class="cls-3" x="455.44" y="158.42" width="19.8" height="19.8"/><rect class="cls-3" x="455.44" y="138.61" width="19.8" height="19.81"/><rect class="cls-3" x="455.44" y="118.81" width="19.8" height="19.8"/><rect class="cls-1" x="455.44" y="99.01" width="19.8" height="19.8"/><rect class="cls-1" x="455.44" y="79.21" width="19.8" height="19.8"/><rect class="cls-3" x="435.64" y="158.42" width="19.8" height="19.8"/><rect class="cls-3" x="435.64" y="138.61" width="19.8" height="19.81"/><rect class="cls-3" x="435.64" y="118.81" width="19.8" height="19.8"/><rect class="cls-2" x="435.64" y="99.01" width="19.8" height="19.8"/><rect class="cls-3" x="435.64" y="79.21" width="19.8" height="19.8"/><rect class="cls-1" x="435.64" y="59.41" width="19.8" height="19.8"/><rect class="cls-3" x="415.84" y="158.42" width="19.8" height="19.8"/><rect class="cls-3" x="415.84" y="138.61" width="19.8" height="19.81"/><rect class="cls-3" x="415.84" y="118.81" width="19.8" height="19.8"/><rect class="cls-3" x="415.84" y="99.01" width="19.8" height="19.8"/><rect class="cls-2" x="415.84" y="79.21" width="19.8" height="19.8"/><rect class="cls-3" x="415.84" y="59.41" width="19.8" height="19.8"/><rect class="cls-1" x="415.84" y="39.6" width="19.8" height="19.81"/><rect class="cls-3" x="396.04" y="158.42" width="19.8" height="19.8"/><rect class="cls-3" x="396.04" y="138.61" width="19.8" height="19.81"/><rect class="cls-3" x="396.04" y="118.81" width="19.8" height="19.8"/><rect class="cls-3" x="396.04" y="99.01" width="19.8" height="19.8"/><rect class="cls-3" x="396.04" y="79.21" width="19.8" height="19.8"/><rect class="cls-3" x="396.04" y="59.41" width="19.8" height="19.8"/><rect class="cls-1" x="396.04" y="39.6" width="19.8" height="19.81"/><rect class="cls-3" x="376.23" y="158.42" width="19.81" height="19.8"/><rect class="cls-3" x="376.23" y="138.61" width="19.81" height="19.81"/><rect class="cls-3" x="376.23" y="118.81" width="19.81" height="19.8"/><rect class="cls-2" x="376.23" y="99.01" width="19.81" height="19.8"/><rect class="cls-3" x="376.23" y="79.21" width="19.81" height="19.8"/><rect class="cls-1" x="376.23" y="59.41" width="19.81" height="19.8"/><rect class="cls-3" x="356.43" y="158.42" width="19.8" height="19.8"/><rect class="cls-3" x="356.43" y="138.61" width="19.8" height="19.81"/><rect class="cls-2" x="356.43" y="118.81" width="19.8" height="19.8"/><rect class="cls-3" x="356.43" y="99.01" width="19.8" height="19.8"/><rect class="cls-1" x="356.43" y="79.21" width="19.8" height="19.8"/><rect class="cls-1" x="356.43" y="59.41" width="19.8" height="19.8"/><rect class="cls-3" x="336.63" y="158.42" width="19.8" height="19.8"/><rect class="cls-3" x="336.63" y="138.61" width="19.8" height="19.81"/><rect class="cls-3" x="336.63" y="118.81" width="19.8" height="19.8"/><rect class="cls-1" x="336.63" y="99.01" width="19.8" height="19.8"/><rect class="cls-1" x="336.63" y="79.21" width="19.8" height="19.8"/><rect class="cls-3" x="316.83" y="158.42" width="19.8" height="19.8"/><rect class="cls-3" x="316.83" y="138.61" width="19.8" height="19.81"/><rect class="cls-3" x="316.83" y="118.81" width="19.8" height="19.8"/><rect class="cls-3" x="316.83" y="99.01" width="19.8" height="19.8"/><rect class="cls-1" x="316.83" y="79.21" width="19.8" height="19.8"/><rect class="cls-1" x="316.83" y="59.41" width="19.8" height="19.8"/><rect class="cls-3" x="297.03" y="158.42" width="19.8" height="19.8"/><rect class="cls-3" x="297.03" y="138.61" width="19.8" height="19.81"/><rect class="cls-3" x="297.03" y="118.81" width="19.8" height="19.8"/><rect class="cls-3" x="297.03" y="99.01" width="19.8" height="19.8"/><rect class="cls-2" x="297.03" y="79.21" width="19.8" height="19.8"/><rect class="cls-1" x="297.03" y="59.41" width="19.8" height="19.8"/><rect class="cls-1" x="297.03" y="39.6" width="19.8" height="19.81"/><rect class="cls-3" x="277.22" y="158.42" width="19.81" height="19.8"/><rect class="cls-3" x="277.22" y="138.61" width="19.81" height="19.81"/><rect class="cls-3" x="277.22" y="118.81" width="19.81" height="19.8"/><rect class="cls-2" x="277.22" y="99.01" width="19.81" height="19.8"/><rect class="cls-3" x="277.22" y="79.21" width="19.81" height="19.8"/><rect class="cls-3" x="277.22" y="59.41" width="19.81" height="19.8"/><rect class="cls-1" x="277.22" y="39.6" width="19.81" height="19.81"/><rect class="cls-3" x="257.42" y="158.42" width="19.8" height="19.8"/><rect class="cls-3" x="257.42" y="138.61" width="19.8" height="19.81"/><rect class="cls-3" x="257.42" y="118.81" width="19.8" height="19.8"/><rect class="cls-3" x="257.42" y="99.01" width="19.8" height="19.8"/><rect class="cls-3" x="257.42" y="79.21" width="19.8" height="19.8"/><rect class="cls-3" x="257.42" y="59.41" width="19.8" height="19.8"/><rect class="cls-1" x="257.42" y="39.6" width="19.8" height="19.81"/><rect class="cls-3" x="237.62" y="158.42" width="19.8" height="19.8"/><rect class="cls-3" x="237.62" y="138.61" width="19.8" height="19.81"/><rect class="cls-3" x="237.62" y="118.81" width="19.8" height="19.8"/><rect class="cls-2" x="237.62" y="99.01" width="19.8" height="19.8"/><rect class="cls-3" x="237.62" y="79.21" width="19.8" height="19.8"/><rect class="cls-1" x="237.62" y="59.41" width="19.8" height="19.8"/><rect class="cls-3" x="217.82" y="158.42" width="19.8" height="19.8"/><rect class="cls-3" x="217.82" y="138.61" width="19.8" height="19.81"/><rect class="cls-2" x="217.82" y="118.81" width="19.8" height="19.8"/><rect class="cls-1" x="217.82" y="79.21" width="19.8" height="19.8"/><rect class="cls-1" x="217.82" y="59.41" width="19.8" height="19.8"/><rect class="cls-3" x="198.02" y="158.42" width="19.8" height="19.8"/><rect class="cls-3" x="198.02" y="138.61" width="19.8" height="19.81"/><rect class="cls-3" x="198.02" y="118.81" width="19.8" height="19.8"/><rect class="cls-1" x="198.02" y="99.01" width="19.8" height="19.8"/><rect class="cls-3" x="178.21" y="158.42" width="19.81" height="19.8"/><rect class="cls-3" x="178.21" y="138.61" width="19.81" height="19.81"/><rect class="cls-3" x="178.21" y="118.81" width="19.81" height="19.8"/><rect class="cls-3" x="178.21" y="99.01" width="19.81" height="19.8"/><rect class="cls-1" x="178.21" y="79.21" width="19.81" height="19.8"/><rect class="cls-1" x="178.21" y="59.41" width="19.81" height="19.8"/><rect class="cls-3" x="158.41" y="158.42" width="19.8" height="19.8"/><rect class="cls-3" x="158.41" y="138.61" width="19.8" height="19.81"/><rect class="cls-3" x="158.41" y="118.81" width="19.8" height="19.8"/><rect class="cls-3" x="158.41" y="99.01" width="19.8" height="19.8"/><rect class="cls-2" x="158.41" y="79.21" width="19.8" height="19.8"/><rect class="cls-3" x="158.41" y="59.41" width="19.8" height="19.8"/><rect class="cls-1" x="158.41" y="39.6" width="19.8" height="19.81"/><rect class="cls-3" x="138.61" y="158.42" width="19.8" height="19.8"/><rect class="cls-3" x="138.61" y="138.61" width="19.8" height="19.81"/><rect class="cls-3" x="138.61" y="118.81" width="19.8" height="19.8"/><rect class="cls-2" x="138.61" y="99.01" width="19.8" height="19.8"/><rect class="cls-3" x="138.61" y="79.21" width="19.8" height="19.8"/><rect class="cls-3" x="138.61" y="59.41" width="19.8" height="19.8"/><rect class="cls-1" x="138.61" y="39.6" width="19.8" height="19.81"/><rect class="cls-3" x="118.81" y="158.42" width="19.8" height="19.8"/><rect class="cls-3" x="118.81" y="138.61" width="19.8" height="19.81"/><rect class="cls-3" x="118.81" y="118.81" width="19.8" height="19.8"/><rect class="cls-3" x="118.81" y="99.01" width="19.8" height="19.8"/><rect class="cls-2" x="118.81" y="79.21" width="19.8" height="19.8"/><rect class="cls-3" x="118.81" y="59.41" width="19.8" height="19.8"/><rect class="cls-1" x="118.81" y="39.6" width="19.8" height="19.81"/><rect class="cls-3" x="99.01" y="158.42" width="19.8" height="19.8"/><rect class="cls-3" x="99.01" y="138.61" width="19.8" height="19.81"/><rect class="cls-2" x="99.01" y="118.81" width="19.8" height="19.8"/><rect class="cls-3" x="99.01" y="99.01" width="19.8" height="19.8"/><rect class="cls-3" x="99.01" y="79.21" width="19.8" height="19.8"/><rect class="cls-1" x="99.01" y="59.41" width="19.8" height="19.8"/><rect class="cls-3" x="79.2" y="158.42" width="19.81" height="19.8"/><rect class="cls-3" x="79.2" y="138.61" width="19.81" height="19.81"/><rect class="cls-3" x="79.2" y="118.81" width="19.81" height="19.8"/><rect class="cls-1" x="79.2" y="99.01" width="19.81" height="19.8"/><rect class="cls-1" x="79.2" y="79.21" width="19.81" height="19.8"/><rect class="cls-3" x="59.4" y="158.42" width="19.8" height="19.8"/><rect class="cls-3" x="59.4" y="138.61" width="19.8" height="19.81"/><rect class="cls-3" x="59.4" y="118.81" width="19.8" height="19.8"/><rect class="cls-1" x="59.4" y="99.01" width="19.8" height="19.8"/><rect class="cls-3" x="39.6" y="158.42" width="19.8" height="19.8"/><rect class="cls-3" x="39.6" y="138.61" width="19.8" height="19.81"/><rect class="cls-1" x="39.6" y="118.81" width="19.8" height="19.8"/><rect class="cls-1" x="39.6" y="99.01" width="19.8" height="19.8"/><rect class="cls-1" x="19.8" y="158.42" width="19.8" height="19.8"/><rect class="cls-1" x="19.8" y="138.61" width="19.8" height="19.81"/><rect class="cls-1" x="19.8" y="118.81" width="19.8" height="19.8"/><rect class="cls-1" y="138.61" width="19.8" height="19.81"/></g></g></svg>